<?xml version="1.0" standalone="no"?>
<!DOCTYPE svg PUBLIC "-//W3C//DTD SVG 20010904//EN"
 "http://www.w3.org/TR/2001/REC-SVG-20010904/DTD/svg10.dtd">
<svg version="1.0" xmlns="http://www.w3.org/2000/svg"
 width="3500.000000pt" height="4000.000000pt" viewBox="0 0 3500.000000 4000.000000"
 preserveAspectRatio="xMidYMid meet">

<g transform="translate(0.000000,4000.000000) scale(0.100000,-0.100000)"
fill="#000000" stroke="none">
<path d="M16850 37583 c-283 -15 -587 -49 -795 -90 -303 -58 -880 -204 -1270
-320 -1227 -365 -2266 -901 -3396 -1749 -817 -614 -1431 -1189 -2244 -2103
-595 -669 -1056 -1297 -1422 -1936 -192 -335 -660 -1248 -801 -1561 -305 -681
-486 -1290 -621 -2099 -82 -491 -110 -820 -120 -1399 l-6 -399 -1109 2619
c-610 1440 -1113 2627 -1118 2636 -8 16 -13 15 -62 -9 l-55 -26 -339 -616
c-281 -510 -349 -641 -395 -761 -175 -459 -304 -1001 -382 -1595 -61 -469 -80
-890 -72 -1640 5 -462 8 -560 22 -610 24 -91 1614 -3127 3340 -6380 1156
-2178 1672 -3139 2240 -4170 406 -737 739 -1347 739 -1356 1 -9 -208 -191
-489 -427 -269 -227 -494 -418 -499 -425 -6 -10 11 -39 55 -96 61 -78 85 -97
485 -386 l420 -304 92 -16 c92 -16 93 -16 124 6 l30 22 -7 -24 c-19 -60 -25
-101 -25 -199 0 -227 73 -425 204 -556 64 -63 81 -74 166 -106 52 -20 114 -42
137 -49 42 -12 43 -13 43 -58 0 -70 19 -169 39 -210 31 -60 165 -232 222 -287
102 -95 274 -179 426 -205 67 -12 70 -14 158 -99 97 -93 160 -140 231 -171 57
-26 235 -66 328 -75 l71 -7 185 -182 185 -182 69 -18 c68 -18 72 -18 217 2
l148 21 318 163 318 164 77 129 76 128 -18 31 c-36 62 -680 1230 -680 1234 0
7 600 401 655 430 33 17 433 223 888 458 456 235 832 423 836 419 4 -5 20 -40
36 -79 16 -38 91 -212 168 -385 77 -173 148 -334 158 -358 l18 -42 -196 -164
-196 -164 -166 -7 c-101 -4 -184 -12 -213 -21 -98 -31 -169 -107 -207 -222
-18 -53 -21 -86 -21 -242 l0 -181 -952 -980 c-524 -539 -970 -1006 -991 -1036
-77 -114 -97 -267 -49 -375 55 -125 155 -197 398 -287 400 -149 698 -235 999
-287 148 -26 180 -28 425 -29 488 0 750 58 932 209 63 52 185 187 452 499 60
70 111 125 113 123 2 -2 -70 -381 -161 -842 -330 -1675 -445 -2294 -536 -2875
-33 -211 -88 -548 -122 -749 -53 -318 -61 -382 -60 -495 0 -362 155 -607 468
-739 350 -148 705 -222 1029 -214 149 4 191 9 340 42 781 171 1108 328 1300
626 100 154 204 393 310 715 193 580 414 1389 645 2360 50 209 94 388 98 399
5 12 12 -17 20 -85 60 -488 214 -1472 298 -1899 277 -1416 749 -2234 1450
-2513 244 -98 621 -148 942 -127 551 37 888 268 1132 775 281 585 342 963 270
1693 -42 437 -111 1403 -190 2687 -37 602 -90 1532 -90 1577 0 12 9 22 21 25
12 4 41 16 64 29 l43 22 147 -261 c196 -347 361 -621 443 -736 209 -293 704
-706 1061 -886 300 -150 752 -211 1647 -222 614 -8 961 13 1142 68 162 50 281
141 336 258 26 57 30 77 31 151 0 97 -23 182 -64 235 -14 18 -454 481 -977
1027 -524 546 -987 1034 -1029 1083 -293 341 -1183 1527 -1756 2340 -228 323
-417 598 -674 979 l-229 339 118 354 c65 194 123 353 130 353 6 0 38 -7 71
-15 108 -26 360 -37 940 -38 730 -2 695 -8 1100 171 247 109 362 168 485 249
226 149 363 287 523 523 94 141 148 214 302 415 317 413 362 588 325 1270 -16
282 -51 447 -127 598 -19 38 -64 137 -100 220 -74 172 -116 248 -174 317 l-40
47 105 132 c449 562 846 1203 1049 1691 349 840 644 1786 862 2763 97 435 166
938 211 1542 10 127 18 231 19 232 1 1 118 25 261 53 450 87 634 142 765 228
83 55 230 194 462 439 424 449 647 739 792 1032 60 122 76 165 185 506 227
705 297 1105 244 1385 -26 140 -55 198 -252 500 -208 319 -355 471 -554 571
-107 54 -197 76 -383 94 -199 20 -258 29 -377 59 -411 104 -760 417 -1103 991
-135 225 -334 628 -600 1215 -428 946 -591 1267 -833 1635 -326 498 -735 946
-1194 1308 -85 67 -196 159 -246 204 -124 112 -209 174 -547 398 -159 105
-468 319 -685 475 -850 608 -1279 861 -1825 1075 -684 269 -1695 500 -2640
604 -299 33 -432 41 -850 51 -220 5 -569 16 -775 25 -323 13 -1141 18 -1320 8z
m1305 -278 c226 -8 590 -19 810 -25 220 -5 454 -14 520 -20 764 -68 1625 -229
2324 -435 800 -236 1246 -475 2316 -1240 198 -142 500 -350 670 -463 377 -249
423 -284 600 -452 176 -167 327 -300 528 -465 141 -116 171 -147 276 -280 392
-498 700 -966 979 -1490 120 -225 222 -441 442 -935 436 -980 650 -1341 1010
-1700 160 -161 269 -246 417 -326 222 -121 421 -172 833 -213 288 -28 433
-151 728 -615 64 -99 124 -202 133 -228 61 -159 40 -480 -56 -848 -46 -174
-127 -440 -134 -440 -7 0 -44 443 -66 795 -22 341 -27 374 -68 459 -70 141
-207 291 -354 386 -124 82 -158 91 -403 106 -136 8 -250 20 -310 34 -247 54
-516 171 -920 398 -341 193 -439 263 -750 540 -249 222 -740 717 -851 857
-377 477 -705 1032 -900 1523 -152 384 -353 672 -754 1081 -384 392 -724 677
-1425 1197 -504 374 -607 438 -1040 645 -1050 503 -1286 612 -1570 724 -1060
419 -2070 581 -3510 562 -421 -6 -505 -11 -800 -48 -886 -111 -1877 -428
-3605 -1154 -515 -216 -710 -304 -1010 -456 -1199 -605 -2462 -1491 -3615
-2535 l-65 -59 100 130 c303 396 534 659 1165 1325 615 648 1109 1091 1780
1591 1209 903 2273 1424 3650 1790 233 62 731 181 870 208 186 37 472 68 770
84 172 10 933 5 1285 -8z m-13096 -9400 l1150 -2690 16 -205 c57 -747 170
-1550 306 -2185 85 -396 251 -1024 393 -1480 134 -434 201 -603 361 -910 435
-839 486 -1005 610 -1985 60 -477 95 -611 208 -803 96 -161 202 -293 392 -483
282 -283 647 -559 1014 -768 l213 -121 410 -915 c397 -889 409 -916 402 -962
-7 -57 -25 -75 -230 -224 -267 -194 -523 -358 -645 -413 -63 -29 -184 -60
-193 -50 -3 3 -395 713 -872 1579 -704 1280 -1142 2093 -2337 4345 -809 1524
-1890 3578 -2404 4565 l-933 1794 -9 151 c-18 280 -23 659 -12 949 28 726 73
981 321 1826 45 151 105 365 136 475 l54 200 242 508 c133 279 245 504 249
500 4 -4 525 -1218 1158 -2698z m15254 -4491 c103 -43 373 -177 522 -260 122
-68 246 -129 378 -187 30 -13 37 -22 37 -44 0 -16 14 -192 30 -393 l30 -364
-26 -115 c-57 -253 -146 -527 -219 -672 -88 -174 -313 -363 -600 -505 -191
-94 -217 -99 -480 -98 -174 0 -250 5 -362 22 -229 36 -315 62 -491 149 l-157
78 -3 235 c-6 484 38 775 186 1225 115 352 210 532 357 680 197 199 366 272
638 274 84 1 106 -3 160 -25z m-10644 -2269 c285 -103 584 -189 821 -234 209
-39 352 -44 1040 -35 914 13 934 12 1000 -10 114 -39 181 -109 166 -172 -9
-36 -50 -72 -206 -184 -201 -144 -426 -250 -730 -344 -305 -93 -443 -116 -745
-123 -265 -6 -381 6 -637 63 -230 51 -528 144 -528 164 0 4 47 27 105 50 58
23 105 46 103 50 -2 4 -105 114 -229 243 -216 225 -229 240 -275 334 -44 87
-49 107 -53 176 -2 46 1 77 7 77 5 0 78 -25 161 -55z m533 -5106 c312 -138
708 -277 1163 -409 155 -45 718 -202 824 -230 l45 -12 -155 -101 c-85 -55
-270 -176 -412 -269 l-258 -168 -251 135 c-138 75 -256 134 -262 131 -6 -2
-72 -43 -146 -89 -74 -47 -138 -83 -141 -79 -5 6 -190 418 -485 1080 -13 28
-22 52 -19 52 2 0 46 -18 97 -41z m8249 -5659 c14 -61 3 -102 -24 -98 -20 3
-22 10 -25 66 -5 100 29 122 49 32z m-839 -9 c4 -79 0 -103 -19 -99 -29 5 -44
100 -22 140 11 21 12 21 25 3 8 -10 15 -30 16 -44z"/>
</g>
</svg>
