<?xml version="1.0" standalone="no"?>
<!DOCTYPE svg PUBLIC "-//W3C//DTD SVG 20010904//EN"
 "http://www.w3.org/TR/2001/REC-SVG-20010904/DTD/svg10.dtd">
<svg version="1.0" xmlns="http://www.w3.org/2000/svg"
 width="225.000000pt" height="225.000000pt" viewBox="0 0 225.000000 225.000000"
 preserveAspectRatio="xMidYMid meet">

<g transform="translate(0.000000,225.000000) scale(0.100000,-0.100000)"
fill="#000000" stroke="none">
<path d="M950 2234 c-148 -19 -383 -85 -483 -135 -38 -20 -38 -20 -35 -76 l3
-57 340 -223 c187 -122 345 -223 350 -223 6 0 163 101 350 223 l340 223 3 57
3 56 -48 24 c-74 37 -187 76 -303 104 -89 21 -134 25 -295 28 -104 2 -206 1
-225 -1z m347 -230 c37 -8 72 -19 77 -24 8 -8 -229 -173 -249 -173 -21 0 -257
165 -249 173 37 36 302 52 421 24z"/>
<path d="M29 2066 c-7 -8 39 -648 48 -656 4 -4 88 -64 185 -134 l176 -126 227
0 226 0 -6 48 c-7 55 -35 362 -35 378 0 6 -117 89 -260 184 l-259 173 -3 66
-3 66 -146 3 c-80 1 -147 0 -150 -2z m467 -396 c231 -112 232 -112 238 -148 3
-20 4 -38 2 -40 -4 -4 -466 206 -479 218 -5 4 -11 27 -14 50 -5 35 -3 42 8 38
8 -3 118 -56 245 -118z m68 -253 c182 -86 202 -101 194 -148 -2 -13 -47 3
-242 92 -131 59 -239 109 -241 111 -1 2 -6 22 -10 45 l-7 43 64 -29 c34 -16
144 -67 242 -114z"/>
<path d="M1927 2063 c-4 -3 -7 -34 -7 -68 l0 -62 -260 -173 c-143 -95 -260
-178 -260 -184 0 -16 -28 -323 -35 -378 l-6 -48 226 0 227 0 176 126 c97 70
181 130 185 134 9 8 55 648 48 656 -7 7 -287 5 -294 -3z m82 -300 c0 -16 -4
-36 -8 -47 -5 -12 -92 -58 -247 -131 -131 -62 -240 -112 -241 -111 -1 1 1 20
4 43 l5 41 237 115 c130 64 239 116 244 116 4 1 7 -11 6 -26z m-25 -251 l-6
-40 -237 -111 c-130 -61 -240 -111 -244 -111 -10 0 -8 52 2 69 9 13 482 242
489 236 1 -1 0 -21 -4 -43z"/>
<path d="M940 1508 c0 -13 9 -120 20 -238 14 -148 20 -295 20 -472 l0 -258
150 0 150 0 1 273 c0 168 7 356 18 492 10 121 17 221 15 223 -1 2 -42 -22 -91
-54 -48 -31 -93 -57 -98 -57 -6 0 -44 22 -85 50 -105 70 -100 67 -100 41z"/>
<path d="M174 1189 c3 -24 18 -224 32 -444 15 -220 27 -401 28 -401 0 -1 81
-42 179 -91 l177 -89 -2 359 -3 360 -100 62 -100 61 -3 45 c-3 43 -5 45 -99
109 -52 36 -100 67 -105 69 -6 2 -7 -14 -4 -40z"/>
<path d="M1968 1162 c-95 -66 -96 -68 -100 -111 l-3 -44 -102 -64 -103 -65 0
-358 0 -359 168 86 c92 47 172 91 178 97 8 7 22 159 38 411 15 220 29 417 32
438 3 20 2 37 -3 36 -4 0 -52 -30 -105 -67z"/>
<path d="M783 938 l-113 -60 0 -389 0 -389 47 -29 c26 -16 50 -28 53 -26 3 2
37 80 75 174 l70 171 210 0 211 0 69 -171 c38 -94 72 -172 75 -174 3 -2 29 10
58 27 l52 30 0 389 0 389 -110 55 c-60 30 -112 55 -115 55 -2 0 -6 -118 -7
-262 l-3 -263 -227 -3 -228 -2 -2 269 -3 269 -112 -60z"/>
<path d="M933 158 l-50 -143 124 -3 c68 -1 177 -1 242 0 l118 3 -50 143 -51
142 -141 0 -141 0 -51 -142z"/>
</g>
</svg>
